<mxfile host="Electron" modified="2024-05-03T16:04:50.588Z" agent="Mozilla/5.0 (Windows NT 10.0; Win64; x64) AppleWebKit/537.36 (KHTML, like Gecko) draw.io/24.0.4 Chrome/120.0.6099.109 Electron/28.1.0 Safari/537.36" etag="6bkMV0TvLjvvGorqfozs" version="24.0.4" type="device">
  <diagram name="Page-1" id="aMdjHmUMgX3MPBuid4oR">
    <mxGraphModel dx="1235" dy="731" grid="1" gridSize="10" guides="1" tooltips="1" connect="1" arrows="1" fold="1" page="1" pageScale="1" pageWidth="850" pageHeight="1100" math="0" shadow="0">
      <root>
        <mxCell id="0" />
        <mxCell id="1" parent="0" />
        <mxCell id="k5NELLiTI0iqF8-oBsQL-4" value="" style="group" vertex="1" connectable="0" parent="1">
          <mxGeometry x="40" y="40" width="720" height="1100" as="geometry" />
        </mxCell>
        <mxCell id="k5NELLiTI0iqF8-oBsQL-5" value="" style="group" vertex="1" connectable="0" parent="k5NELLiTI0iqF8-oBsQL-4">
          <mxGeometry x="80" width="620" height="1100" as="geometry" />
        </mxCell>
        <mxCell id="k5NELLiTI0iqF8-oBsQL-33" value="" style="group" vertex="1" connectable="0" parent="k5NELLiTI0iqF8-oBsQL-5">
          <mxGeometry width="620" height="1100" as="geometry" />
        </mxCell>
        <mxCell id="k5NELLiTI0iqF8-oBsQL-1" value="&lt;font style=&quot;font-size: 14px;&quot;&gt;Khách hàng&lt;/font&gt;" style="swimlane;whiteSpace=wrap;html=1;" vertex="1" parent="k5NELLiTI0iqF8-oBsQL-33">
          <mxGeometry width="310" height="800" as="geometry" />
        </mxCell>
        <mxCell id="k5NELLiTI0iqF8-oBsQL-11" value="" style="edgeStyle=orthogonalEdgeStyle;rounded=0;orthogonalLoop=1;jettySize=auto;html=1;exitX=0.486;exitY=0.874;exitDx=0;exitDy=0;exitPerimeter=0;" edge="1" parent="k5NELLiTI0iqF8-oBsQL-1" source="k5NELLiTI0iqF8-oBsQL-6" target="k5NELLiTI0iqF8-oBsQL-10">
          <mxGeometry relative="1" as="geometry" />
        </mxCell>
        <mxCell id="k5NELLiTI0iqF8-oBsQL-6" value="" style="ellipse;html=1;shape=startState;fillColor=#000000;strokeColor=none;" vertex="1" parent="k5NELLiTI0iqF8-oBsQL-1">
          <mxGeometry x="125" y="29" width="30" height="30" as="geometry" />
        </mxCell>
        <mxCell id="k5NELLiTI0iqF8-oBsQL-10" value="Chọn đăng ký tài khoản" style="rounded=1;whiteSpace=wrap;html=1;fontSize=14;" vertex="1" parent="k5NELLiTI0iqF8-oBsQL-1">
          <mxGeometry x="80" y="108" width="120" height="60" as="geometry" />
        </mxCell>
        <mxCell id="k5NELLiTI0iqF8-oBsQL-15" value="Nhập số điện thoại và yêu cầu gủi mã OTP" style="rounded=1;whiteSpace=wrap;html=1;fontSize=14;" vertex="1" parent="k5NELLiTI0iqF8-oBsQL-1">
          <mxGeometry x="62.5" y="210" width="155" height="40" as="geometry" />
        </mxCell>
        <mxCell id="k5NELLiTI0iqF8-oBsQL-12" value="Nhập thông tin đăng ký đầy đủ bao gồm mã OTP" style="rounded=1;whiteSpace=wrap;html=1;fontSize=14;" vertex="1" parent="k5NELLiTI0iqF8-oBsQL-1">
          <mxGeometry x="70" y="300" width="140" height="70" as="geometry" />
        </mxCell>
        <mxCell id="k5NELLiTI0iqF8-oBsQL-22" value="" style="rhombus;whiteSpace=wrap;html=1;rounded=1;" vertex="1" parent="k5NELLiTI0iqF8-oBsQL-1">
          <mxGeometry x="105" y="418" width="70" height="70" as="geometry" />
        </mxCell>
        <mxCell id="k5NELLiTI0iqF8-oBsQL-23" value="" style="edgeStyle=orthogonalEdgeStyle;rounded=0;orthogonalLoop=1;jettySize=auto;html=1;" edge="1" parent="k5NELLiTI0iqF8-oBsQL-1" source="k5NELLiTI0iqF8-oBsQL-12" target="k5NELLiTI0iqF8-oBsQL-22">
          <mxGeometry relative="1" as="geometry" />
        </mxCell>
        <mxCell id="k5NELLiTI0iqF8-oBsQL-37" value="" style="edgeStyle=orthogonalEdgeStyle;rounded=0;orthogonalLoop=1;jettySize=auto;html=1;" edge="1" parent="k5NELLiTI0iqF8-oBsQL-1" source="k5NELLiTI0iqF8-oBsQL-30" target="k5NELLiTI0iqF8-oBsQL-36">
          <mxGeometry relative="1" as="geometry" />
        </mxCell>
        <mxCell id="k5NELLiTI0iqF8-oBsQL-39" value="[Sai thông tin]" style="edgeLabel;html=1;align=center;verticalAlign=middle;resizable=0;points=[];fontSize=13;" vertex="1" connectable="0" parent="k5NELLiTI0iqF8-oBsQL-37">
          <mxGeometry x="0.1571" relative="1" as="geometry">
            <mxPoint as="offset" />
          </mxGeometry>
        </mxCell>
        <mxCell id="k5NELLiTI0iqF8-oBsQL-30" value="" style="rhombus;whiteSpace=wrap;html=1;rounded=1;" vertex="1" parent="k5NELLiTI0iqF8-oBsQL-1">
          <mxGeometry x="430" y="418" width="70" height="70" as="geometry" />
        </mxCell>
        <mxCell id="k5NELLiTI0iqF8-oBsQL-34" value="Kiểm tra" style="text;html=1;align=center;verticalAlign=middle;resizable=0;points=[];autosize=1;strokeColor=none;fillColor=none;fontSize=13;" vertex="1" parent="k5NELLiTI0iqF8-oBsQL-1">
          <mxGeometry x="388" y="413" width="70" height="30" as="geometry" />
        </mxCell>
        <mxCell id="k5NELLiTI0iqF8-oBsQL-38" style="edgeStyle=orthogonalEdgeStyle;rounded=0;orthogonalLoop=1;jettySize=auto;html=1;" edge="1" parent="k5NELLiTI0iqF8-oBsQL-1" source="k5NELLiTI0iqF8-oBsQL-36">
          <mxGeometry relative="1" as="geometry">
            <mxPoint x="220" y="340" as="targetPoint" />
          </mxGeometry>
        </mxCell>
        <mxCell id="k5NELLiTI0iqF8-oBsQL-36" value="Thông báo lỗi" style="whiteSpace=wrap;html=1;rounded=1;fontSize=14;" vertex="1" parent="k5NELLiTI0iqF8-oBsQL-1">
          <mxGeometry x="407.5" y="320" width="115" height="40" as="geometry" />
        </mxCell>
        <mxCell id="k5NELLiTI0iqF8-oBsQL-31" value="" style="edgeStyle=orthogonalEdgeStyle;rounded=0;orthogonalLoop=1;jettySize=auto;html=1;" edge="1" parent="k5NELLiTI0iqF8-oBsQL-1" source="k5NELLiTI0iqF8-oBsQL-22" target="k5NELLiTI0iqF8-oBsQL-30">
          <mxGeometry relative="1" as="geometry" />
        </mxCell>
        <mxCell id="k5NELLiTI0iqF8-oBsQL-32" value="[Đồng ý điều khoản&amp;nbsp;&lt;div style=&quot;font-size: 13px;&quot;&gt;và xác nhận đăng ký]&lt;/div&gt;" style="edgeLabel;html=1;align=center;verticalAlign=middle;resizable=0;points=[];fontSize=13;" vertex="1" connectable="0" parent="k5NELLiTI0iqF8-oBsQL-31">
          <mxGeometry x="-0.7644" y="-3" relative="1" as="geometry">
            <mxPoint x="30" y="-3" as="offset" />
          </mxGeometry>
        </mxCell>
        <mxCell id="k5NELLiTI0iqF8-oBsQL-3" value="&lt;font style=&quot;font-size: 15px;&quot;&gt;Hệ thống&lt;/font&gt;" style="swimlane;whiteSpace=wrap;html=1;" vertex="1" parent="k5NELLiTI0iqF8-oBsQL-33">
          <mxGeometry x="310" width="310" height="800" as="geometry" />
        </mxCell>
        <mxCell id="k5NELLiTI0iqF8-oBsQL-17" value="Gửi mã OTP" style="rounded=1;whiteSpace=wrap;html=1;fontSize=14;" vertex="1" parent="k5NELLiTI0iqF8-oBsQL-3">
          <mxGeometry x="100" y="210" width="110" height="40" as="geometry" />
        </mxCell>
        <mxCell id="k5NELLiTI0iqF8-oBsQL-45" value="" style="ellipse;html=1;shape=endState;fillColor=#000000;strokeColor=#000000;" vertex="1" parent="k5NELLiTI0iqF8-oBsQL-3">
          <mxGeometry x="140" y="728" width="30" height="30" as="geometry" />
        </mxCell>
        <mxCell id="k5NELLiTI0iqF8-oBsQL-51" value="Hiện thị form đăng ký tài khoản" style="whiteSpace=wrap;html=1;rounded=1;fontSize=14;" vertex="1" parent="k5NELLiTI0iqF8-oBsQL-3">
          <mxGeometry x="92.5" y="112" width="125" height="52" as="geometry" />
        </mxCell>
        <mxCell id="k5NELLiTI0iqF8-oBsQL-43" value="Thông báo đăng ký thành công" style="whiteSpace=wrap;html=1;rounded=1;fontSize=14;" vertex="1" parent="k5NELLiTI0iqF8-oBsQL-3">
          <mxGeometry x="95" y="628" width="120" height="60" as="geometry" />
        </mxCell>
        <mxCell id="k5NELLiTI0iqF8-oBsQL-46" value="" style="edgeStyle=orthogonalEdgeStyle;rounded=0;orthogonalLoop=1;jettySize=auto;html=1;" edge="1" parent="k5NELLiTI0iqF8-oBsQL-3" source="k5NELLiTI0iqF8-oBsQL-43" target="k5NELLiTI0iqF8-oBsQL-45">
          <mxGeometry relative="1" as="geometry" />
        </mxCell>
        <mxCell id="k5NELLiTI0iqF8-oBsQL-40" value="Tạo tài khoản người dùng đăng ký" style="whiteSpace=wrap;html=1;rounded=1;fontSize=14;" vertex="1" parent="k5NELLiTI0iqF8-oBsQL-3">
          <mxGeometry x="95" y="528" width="120" height="60" as="geometry" />
        </mxCell>
        <mxCell id="k5NELLiTI0iqF8-oBsQL-44" value="" style="edgeStyle=orthogonalEdgeStyle;rounded=0;orthogonalLoop=1;jettySize=auto;html=1;" edge="1" parent="k5NELLiTI0iqF8-oBsQL-3" source="k5NELLiTI0iqF8-oBsQL-40" target="k5NELLiTI0iqF8-oBsQL-43">
          <mxGeometry relative="1" as="geometry" />
        </mxCell>
        <mxCell id="k5NELLiTI0iqF8-oBsQL-20" style="edgeStyle=orthogonalEdgeStyle;rounded=0;orthogonalLoop=1;jettySize=auto;html=1;" edge="1" parent="k5NELLiTI0iqF8-oBsQL-33" source="k5NELLiTI0iqF8-oBsQL-15" target="k5NELLiTI0iqF8-oBsQL-17">
          <mxGeometry relative="1" as="geometry" />
        </mxCell>
        <mxCell id="k5NELLiTI0iqF8-oBsQL-21" style="edgeStyle=orthogonalEdgeStyle;rounded=0;orthogonalLoop=1;jettySize=auto;html=1;entryX=0.5;entryY=0;entryDx=0;entryDy=0;" edge="1" parent="k5NELLiTI0iqF8-oBsQL-33" source="k5NELLiTI0iqF8-oBsQL-17" target="k5NELLiTI0iqF8-oBsQL-12">
          <mxGeometry relative="1" as="geometry">
            <Array as="points">
              <mxPoint x="435" y="270" />
              <mxPoint x="140" y="270" />
            </Array>
          </mxGeometry>
        </mxCell>
        <mxCell id="k5NELLiTI0iqF8-oBsQL-47" style="edgeStyle=orthogonalEdgeStyle;rounded=0;orthogonalLoop=1;jettySize=auto;html=1;entryX=0;entryY=0.5;entryDx=0;entryDy=0;" edge="1" parent="k5NELLiTI0iqF8-oBsQL-33" source="k5NELLiTI0iqF8-oBsQL-22" target="k5NELLiTI0iqF8-oBsQL-45">
          <mxGeometry relative="1" as="geometry">
            <Array as="points">
              <mxPoint x="140" y="743" />
            </Array>
          </mxGeometry>
        </mxCell>
        <mxCell id="k5NELLiTI0iqF8-oBsQL-49" value="[Huỷ đăng ký]" style="edgeLabel;html=1;align=center;verticalAlign=middle;resizable=0;points=[];" vertex="1" connectable="0" parent="k5NELLiTI0iqF8-oBsQL-47">
          <mxGeometry x="-0.8917" y="-2" relative="1" as="geometry">
            <mxPoint as="offset" />
          </mxGeometry>
        </mxCell>
        <mxCell id="k5NELLiTI0iqF8-oBsQL-52" value="" style="edgeStyle=orthogonalEdgeStyle;rounded=0;orthogonalLoop=1;jettySize=auto;html=1;" edge="1" parent="k5NELLiTI0iqF8-oBsQL-33" source="k5NELLiTI0iqF8-oBsQL-10" target="k5NELLiTI0iqF8-oBsQL-51">
          <mxGeometry relative="1" as="geometry" />
        </mxCell>
        <mxCell id="k5NELLiTI0iqF8-oBsQL-55" style="edgeStyle=orthogonalEdgeStyle;rounded=0;orthogonalLoop=1;jettySize=auto;html=1;entryX=0.5;entryY=0;entryDx=0;entryDy=0;" edge="1" parent="k5NELLiTI0iqF8-oBsQL-33" source="k5NELLiTI0iqF8-oBsQL-51" target="k5NELLiTI0iqF8-oBsQL-15">
          <mxGeometry relative="1" as="geometry">
            <Array as="points">
              <mxPoint x="465" y="180" />
              <mxPoint x="140" y="180" />
            </Array>
          </mxGeometry>
        </mxCell>
        <mxCell id="k5NELLiTI0iqF8-oBsQL-41" value="" style="edgeStyle=orthogonalEdgeStyle;rounded=0;orthogonalLoop=1;jettySize=auto;html=1;" edge="1" parent="k5NELLiTI0iqF8-oBsQL-33" source="k5NELLiTI0iqF8-oBsQL-30" target="k5NELLiTI0iqF8-oBsQL-40">
          <mxGeometry relative="1" as="geometry" />
        </mxCell>
        <mxCell id="k5NELLiTI0iqF8-oBsQL-42" value="[Thông tin chính xác]" style="edgeLabel;html=1;align=center;verticalAlign=middle;resizable=0;points=[];fontSize=13;" vertex="1" connectable="0" parent="k5NELLiTI0iqF8-oBsQL-41">
          <mxGeometry x="-0.4078" y="1" relative="1" as="geometry">
            <mxPoint x="-1" y="5" as="offset" />
          </mxGeometry>
        </mxCell>
        <mxCell id="k5NELLiTI0iqF8-oBsQL-57" value="&lt;font style=&quot;font-size: 20px;&quot;&gt;Đăng ký&lt;/font&gt;" style="html=1;whiteSpace=wrap;fontStyle=1" vertex="1" parent="1">
          <mxGeometry x="120" y="10" width="620" height="30" as="geometry" />
        </mxCell>
      </root>
    </mxGraphModel>
  </diagram>
</mxfile>
